<svg width="20" height="14" viewBox="0 0 20 14" fill="none" xmlns="http://www.w3.org/2000/svg">
<path fill-rule="evenodd" clip-rule="evenodd" d="M4.30089 0.333375L15.6985 0.333376C16.1378 0.333361 16.5167 0.333348 16.8289 0.358851C17.1583 0.385769 17.486 0.445199 17.8013 0.60586C18.2717 0.845543 18.6542 1.22799 18.8939 1.6984C19.0545 2.01372 19.114 2.3414 19.1409 2.67085C19.1664 2.98299 19.1664 3.36196 19.1663 3.80124V10.1988C19.1664 10.6381 19.1664 11.0171 19.1409 11.3292C19.114 11.6587 19.0545 11.9864 18.8939 12.3017C18.6542 12.7721 18.2717 13.1545 17.8013 13.3942C17.486 13.5549 17.1583 13.6143 16.8289 13.6412C16.5167 13.6667 16.1378 13.6667 15.6985 13.6667L4.30091 13.6667C3.86161 13.6667 3.48263 13.6667 3.17049 13.6412C2.84103 13.6143 2.51335 13.5549 2.19803 13.3942C1.72763 13.1545 1.34518 12.7721 1.10549 12.3017C0.944831 11.9864 0.885401 11.6587 0.858484 11.3292C0.832981 11.0171 0.832994 10.6381 0.833009 10.1988L0.833009 5.3339C0.833009 5.33373 0.833009 5.33408 0.833009 5.3339C0.833009 5.33373 0.833009 5.33302 0.833009 5.33285L0.833009 3.80126C0.832994 3.36196 0.832981 2.983 0.858484 2.67085C0.885401 2.3414 0.944831 2.01372 1.10549 1.6984C1.34518 1.22799 1.72763 0.845542 2.19803 0.605859C2.51335 0.445197 2.84103 0.385767 3.17049 0.35885C3.48263 0.333347 3.8616 0.33336 4.30089 0.333375ZM2.49968 6.16671V10.1667C2.49968 10.6472 2.50032 10.9574 2.51962 11.1935C2.53811 11.4199 2.56951 11.5038 2.5905 11.545C2.6704 11.7018 2.79788 11.8293 2.95468 11.9092C2.99589 11.9302 3.07982 11.9616 3.30621 11.9801C3.54232 11.9994 3.85255 12 4.33301 12L15.6663 12C16.1468 12 16.457 11.9994 16.6931 11.9801C16.9195 11.9616 17.0035 11.9302 17.0447 11.9092C17.2015 11.8293 17.329 11.7018 17.4088 11.545C17.4298 11.5038 17.4612 11.4199 17.4797 11.1935C17.499 10.9574 17.4997 10.6472 17.4997 10.1667V6.16671H2.49968ZM17.4997 4.50004H2.49968V3.83338C2.49968 3.35291 2.50032 3.04269 2.51962 2.80657C2.53811 2.58019 2.56951 2.49625 2.5905 2.45505C2.6704 2.29825 2.79788 2.17076 2.95468 2.09087C2.99589 2.06988 3.07982 2.03848 3.30621 2.01998C3.54232 2.00069 3.85255 2.00004 4.33301 2.00004L15.6663 2.00004C16.1468 2.00004 16.457 2.00069 16.6931 2.01998C16.9195 2.03848 17.0035 2.06988 17.0447 2.09087C17.2015 2.17077 17.329 2.29825 17.4088 2.45505C17.4298 2.49625 17.4612 2.58019 17.4797 2.80657C17.499 3.04269 17.4997 3.35291 17.4997 3.83338V4.50004ZM4.16634 8.66671C4.16634 8.20647 4.53944 7.83338 4.99968 7.83338H9.16634C9.62658 7.83338 9.99968 8.20647 9.99968 8.66671C9.99968 9.12695 9.62658 9.50004 9.16634 9.50004H4.99968C4.53944 9.50004 4.16634 9.12695 4.16634 8.66671Z" fill="#667085"/>
</svg>
