<svg width="150" height="150" viewBox="0 0 150 150" fill="none" xmlns="http://www.w3.org/2000/svg">
<circle cx="75" cy="75" r="75" fill="url(#paint0_linear_249_17685)"/>
<mask id="mask0_249_17685" style="mask-type:alpha" maskUnits="userSpaceOnUse" x="0" y="0" width="150" height="150">
<circle cx="75" cy="75" r="75" fill="#FEA724"/>
</mask>
<g mask="url(#mask0_249_17685)">
<g clip-path="url(#clip0_249_17685)">
<path d="M114.308 80.9643C114.308 80.9643 112.404 78.6123 111.481 77.8002C110.558 76.9881 108.345 73.9363 107.337 73.2082C106.329 72.4801 101.625 71.6217 101.625 71.6217V61.8775C101.625 61.8775 106.815 58.8163 107.897 58.0696C108.98 57.323 111.108 55.2322 110.436 52.619C109.764 50.0058 108.569 49.4084 104.164 50.2296C99.7586 51.0508 65.3367 76.3629 65.3367 76.3629H38.531C38.531 76.3629 31.0645 96.8964 29.4217 101.6C27.779 106.304 22.4029 114.256 22.4029 114.256C22.4029 114.256 20.5364 116.159 19.8269 117.205C19.1174 118.25 18.5205 121.76 18.5205 121.76C13.2729 127.795 -0.370274 142.535 -13.2129 156.052H34.3537C39.0278 147.446 47.1923 137.44 47.1923 137.44C55.1444 137.048 66.606 126.315 66.606 126.315L101.811 103.989H105.601V103.299C105.451 103.112 104.499 102.636 104.499 102.636H101.867V91.1097H105.918V90.2322L105.908 89.4764H101.568V81.8323H102.464C103.747 83.4945 105.776 84.8306 107.054 85.5689C107.808 86.0202 108.66 86.2831 109.537 86.3352C115.563 86.5999 114.308 80.9643 114.308 80.9643Z" fill="#FCDCC7"/>
<path d="M52.3999 116.907C52.3999 116.907 51.5598 120.434 49.7119 122.339C47.864 124.244 43.16 125.195 43.16 125.195C42.712 126.875 40.3597 130.459 40.3597 130.459C40.3597 130.459 38.9036 132.363 35.7678 135.275C33.2693 137.595 23.5267 150.782 19.666 156.052H34.3533C39.0274 147.446 47.1919 137.44 47.1919 137.44C55.144 137.048 66.6055 126.315 66.6055 126.315L73.7361 121.793V116.907H52.3999Z" fill="#FFC8BC"/>
<path d="M108.54 84.5098C104.203 83.4753 104.536 74.6258 105.433 73.7858C105.832 73.4193 106.296 73.1292 106.801 72.9298C105.225 72.2776 101.624 71.6206 101.624 71.6206V61.8775C101.624 61.8775 106.814 58.8163 107.897 58.0696C108.862 57.3933 109.639 56.4815 110.153 55.4206C108.895 57.6154 105.433 57.379 105.433 57.379V50.0233C105.04 50.0772 104.623 50.1439 104.163 50.2296C103.661 50.3233 102.754 50.7474 101.568 51.403V104.143L101.811 103.989H105.6V103.299C105.451 103.112 104.498 102.636 104.498 102.636H101.867V91.1097H105.918V90.2321L105.909 89.4763H101.568V81.8323H102.464C103.747 83.4945 105.776 84.8305 107.055 85.5688C107.808 86.0202 108.66 86.2831 109.537 86.3351C113.081 86.4908 114.101 84.6084 114.344 83.0289L114.28 83.027C114.056 84.3709 111.592 85.239 108.54 84.5098Z" fill="#FFC8BC"/>
<path d="M43.1604 125.444C43.096 125.445 43.0338 125.42 42.9869 125.376C42.9401 125.331 42.9123 125.271 42.9094 125.206C42.9065 125.142 42.9288 125.079 42.9714 125.03C43.0141 124.982 43.0738 124.952 43.1381 124.947C50.7552 124.245 52.4774 116.927 52.4938 116.853C52.5089 116.789 52.5485 116.734 52.6039 116.699C52.6593 116.665 52.7261 116.653 52.7899 116.667C52.8538 116.682 52.9095 116.72 52.945 116.775C52.9806 116.83 52.9932 116.897 52.9801 116.961C52.9626 117.038 51.1682 124.706 43.1839 125.442C43.1761 125.443 43.1683 125.444 43.1604 125.444Z" fill="#E4B4AB"/>
<path d="M45.8483 137.148C45.8047 137.148 45.7619 137.137 45.7241 137.115C45.6863 137.094 45.6549 137.062 45.6328 137.025C42.675 131.985 36.702 128.131 36.6417 128.093C36.6142 128.075 36.5905 128.052 36.5718 128.025C36.5532 127.998 36.54 127.968 36.533 127.936C36.5261 127.904 36.5255 127.871 36.5313 127.839C36.5371 127.807 36.5492 127.776 36.5669 127.748C36.5846 127.721 36.6075 127.697 36.6343 127.679C36.6612 127.66 36.6915 127.647 36.7234 127.64C36.7554 127.633 36.7884 127.632 36.8206 127.638C36.8528 127.644 36.8835 127.656 36.911 127.674C36.9716 127.713 43.0436 131.629 46.0634 136.773C46.0855 136.811 46.0973 136.854 46.0975 136.898C46.0976 136.942 46.0862 136.985 46.0643 137.023C46.0425 137.061 46.011 137.093 45.973 137.115C45.935 137.137 45.8919 137.148 45.848 137.148H45.8483Z" fill="#E4B4AB"/>
<path d="M40.3601 130.708C40.3164 130.708 40.2734 130.696 40.2357 130.674C40.2073 130.658 40.1825 130.636 40.1626 130.611C40.1427 130.585 40.1282 130.555 40.1197 130.523C40.1113 130.492 40.1092 130.459 40.1135 130.427C40.1178 130.394 40.1285 130.363 40.1449 130.335C40.2526 130.148 42.8329 125.749 46.65 124.951C50.2599 124.197 50.845 124.213 50.9193 124.22C50.9518 124.224 50.9831 124.234 51.0115 124.251C51.0399 124.267 51.0648 124.289 51.0849 124.314C51.1049 124.34 51.1196 124.37 51.1281 124.401C51.1367 124.433 51.1389 124.466 51.1348 124.498C51.1254 124.564 51.0912 124.622 51.0392 124.663C50.9872 124.703 50.9216 124.721 50.8563 124.714C50.8469 124.714 50.2866 124.7 46.752 125.439C43.1547 126.191 40.6008 130.54 40.5755 130.584C40.5536 130.622 40.5222 130.653 40.4844 130.675C40.4466 130.696 40.4037 130.708 40.3601 130.708Z" fill="#E4B4AB"/>
<path d="M26.8714 143.322C26.8435 143.321 26.8166 143.312 26.7947 143.295C26.7687 143.274 26.752 143.244 26.748 143.212C26.744 143.179 26.7531 143.146 26.7734 143.12C30.0314 138.954 35.7774 130.914 35.8353 130.834C35.8446 130.82 35.8566 130.809 35.8705 130.8C35.8843 130.791 35.8998 130.785 35.916 130.783C35.9322 130.78 35.9488 130.781 35.9648 130.784C35.9808 130.788 35.9958 130.795 36.009 130.805C36.0357 130.824 36.0538 130.853 36.0591 130.886C36.0645 130.919 36.0567 130.952 36.0375 130.979C35.9802 131.059 30.2309 139.104 26.9697 143.273C26.958 143.288 26.9431 143.3 26.926 143.309C26.909 143.317 26.8903 143.321 26.8714 143.322Z" fill="#E4B4AB"/>
<path d="M21.8254 153.24C21.8024 153.24 21.7798 153.234 21.7602 153.221C21.7406 153.209 21.7247 153.192 21.7144 153.171C21.704 153.151 21.6996 153.128 21.7017 153.105C21.7037 153.082 21.712 153.06 21.7258 153.041C21.8209 152.913 31.2996 140.218 33.1809 138.018C35.0927 135.784 39.1011 132.149 39.4595 131.856C39.4851 131.836 39.5176 131.827 39.55 131.83C39.5824 131.834 39.6121 131.85 39.6327 131.875C39.6533 131.9 39.6632 131.933 39.6603 131.965C39.6574 131.998 39.6418 132.028 39.617 132.049C39.2608 132.34 35.2731 135.956 33.3702 138.18C31.4937 140.374 22.0204 153.062 21.9248 153.19C21.9132 153.205 21.8982 153.218 21.881 153.227C21.8638 153.235 21.8447 153.24 21.8254 153.24Z" fill="#E4B4AB"/>
<path d="M102.65 76.8359C102.609 76.836 102.569 76.8259 102.533 76.8067C102.497 76.7875 102.466 76.7597 102.444 76.7257C102.421 76.6918 102.407 76.6528 102.403 76.6121C102.399 76.5715 102.404 76.5304 102.42 76.4926C103.347 74.2344 105.14 73.5451 105.215 73.5168C105.277 73.4942 105.345 73.4969 105.404 73.5243C105.464 73.5518 105.511 73.6017 105.534 73.6633C105.557 73.7248 105.554 73.793 105.527 73.8529C105.5 73.9127 105.451 73.9595 105.389 73.9829C104.237 74.5265 103.339 75.4929 102.881 76.6814C102.862 76.7271 102.83 76.7662 102.789 76.7937C102.748 76.8212 102.7 76.8359 102.65 76.8359Z" fill="#E4B4AB"/>
<path d="M52.0627 82.548C52.0102 82.5479 51.9591 82.5313 51.9166 82.5004C51.8741 82.4696 51.8424 82.4261 51.826 82.3763C50.8209 79.3067 49.2476 78.6742 49.2323 78.6683C49.1716 78.6445 49.1227 78.5978 49.096 78.5383C49.0693 78.4788 49.0671 78.4113 49.0897 78.3501C49.1122 78.289 49.1579 78.2391 49.2168 78.2113C49.2758 78.1834 49.3433 78.1798 49.4049 78.2011C49.4781 78.228 51.2105 78.8969 52.2994 82.2217C52.3199 82.2845 52.3146 82.3529 52.2847 82.4118C52.2548 82.4707 52.2028 82.5154 52.14 82.5359C52.115 82.5439 52.089 82.548 52.0627 82.548Z" fill="#E4B4AB"/>
<path d="M105.88 89.4866C105.88 89.4866 103.892 90.475 103.136 91.2588C102.38 92.0427 101.344 94.0861 101.344 96.2148C101.344 98.3436 102.24 101.283 104.909 101.507C107.579 101.731 109.482 100.928 110.098 98.9869C110.715 97.0455 110.378 94.6749 109.762 93.4802C109.146 92.2855 108.328 90.4037 107.364 89.9244C106.904 89.6792 106.399 89.5302 105.88 89.4866Z" fill="#FCDCC7"/>
<path d="M104.586 103.145C104.586 103.145 101.414 105.063 101.204 107.079C100.994 109.095 101.867 112.59 104.102 112.637C106.79 112.693 108.498 111.614 108.778 109.725C109.058 107.836 108.778 105.721 107.224 104.517C105.753 103.376 105.426 103.155 105.426 103.155L104.586 103.145Z" fill="#FCDCC7"/>
<path d="M109.247 77.0834C109.191 77.664 109.135 78.1551 110.674 78.6309C111.796 78.978 113.227 79.9742 113.925 80.4917C113.165 79.5475 112.35 78.6484 111.486 77.7991C110.932 77.2509 110.413 76.669 109.931 76.0568C109.621 76.3651 109.277 76.7687 109.247 77.0834Z" fill="#F3F3EA"/>
<path d="M108.435 92.9528C108.05 92.8 107.625 92.7818 107.228 92.9013C106.832 93.0207 106.487 93.2708 106.251 93.6109C106.503 93.4988 108.967 94.2549 109.667 95.6828C110.058 96.4801 110.178 97.678 110.208 98.5814C110.528 97.1838 110.491 95.7281 110.1 94.3486C109.708 93.718 109.124 93.229 108.435 92.9528Z" fill="#F3F3EA"/>
<path d="M108.325 105.884C108.069 105.351 107.695 104.884 107.231 104.517C106.495 103.946 106.047 103.606 105.78 103.408C105.865 104.115 106.058 105.192 106.466 105.428C106.92 105.689 107.715 105.668 108.325 105.884Z" fill="#F3F3EA"/>
<path d="M113.769 80.5014C113.743 80.5014 113.717 80.4931 113.696 80.4777C112.998 79.9696 111.673 79.0697 110.637 78.7498C109.123 78.2819 109.053 77.7856 109.121 77.082C109.148 76.8042 109.364 76.4627 109.757 76.0564C109.78 76.0327 109.812 76.0191 109.845 76.0187C109.878 76.0182 109.91 76.0309 109.934 76.054C109.957 76.0771 109.971 76.1086 109.971 76.1417C109.972 76.1748 109.959 76.2067 109.936 76.2304C109.669 76.4586 109.472 76.759 109.371 77.0958C109.317 77.665 109.278 78.0689 110.712 78.5118C111.782 78.8427 113.133 79.759 113.843 80.2763C113.864 80.2917 113.88 80.3134 113.888 80.3384C113.896 80.3633 113.896 80.3902 113.888 80.4152C113.88 80.4402 113.864 80.462 113.843 80.4774C113.822 80.4929 113.796 80.5013 113.77 80.5014H113.769Z" fill="#E4B4AB"/>
<path d="M110.179 98.1584C110.148 98.1584 110.118 98.1465 110.095 98.125C110.071 98.1036 110.057 98.0742 110.055 98.0428C110.031 97.2504 109.862 96.4691 109.555 95.738C108.887 94.3752 106.507 93.6679 106.297 93.7269C106.273 93.7376 106.246 93.7402 106.221 93.7342C106.195 93.7282 106.172 93.714 106.155 93.6937C106.138 93.6732 106.128 93.6478 106.126 93.6211C106.125 93.5945 106.131 93.568 106.145 93.5454C106.399 93.1845 106.766 92.9187 107.188 92.79C107.609 92.6612 108.062 92.677 108.474 92.8348C109.095 93.0685 109.632 93.4823 110.017 94.0233C110.036 94.0494 110.044 94.0819 110.039 94.1139C110.035 94.1459 110.018 94.1749 109.993 94.1948C109.967 94.2146 109.935 94.2237 109.903 94.2202C109.871 94.2167 109.841 94.2009 109.821 94.176C109.466 93.6746 108.969 93.2903 108.395 93.072C108.073 92.9423 107.72 92.9134 107.381 92.9893C107.043 93.0652 106.736 93.2423 106.5 93.4969C107.281 93.6181 109.178 94.4046 109.779 95.6289C110.1 96.3891 110.278 97.2019 110.305 98.0267C110.306 98.043 110.304 98.0593 110.298 98.0748C110.293 98.0903 110.285 98.1046 110.274 98.1169C110.264 98.1292 110.251 98.1393 110.236 98.1465C110.221 98.1538 110.205 98.1581 110.189 98.1592C110.186 98.1592 110.183 98.1589 110.179 98.1584Z" fill="#E4B4AB"/>
<path d="M108.063 105.931C108.053 105.931 108.043 105.93 108.033 105.927C107.84 105.88 107.633 105.847 107.431 105.814C107.075 105.78 106.727 105.686 106.402 105.535C106.069 105.342 105.824 104.686 105.675 103.585C105.671 103.552 105.68 103.519 105.7 103.493C105.72 103.466 105.75 103.449 105.783 103.445C105.815 103.441 105.848 103.45 105.874 103.47C105.9 103.49 105.918 103.52 105.923 103.552C106.054 104.53 106.274 105.174 106.526 105.319C106.825 105.454 107.145 105.538 107.471 105.569C107.677 105.602 107.89 105.636 108.094 105.687C108.123 105.694 108.149 105.712 108.166 105.737C108.183 105.762 108.19 105.793 108.187 105.823C108.183 105.853 108.168 105.88 108.146 105.901C108.123 105.921 108.094 105.932 108.063 105.932V105.931Z" fill="#E4B4AB"/>
<path d="M104.91 101.756C104.903 101.756 104.896 101.756 104.889 101.756C102.268 101.537 101.096 98.8154 101.096 96.216C101.096 94.0115 102.185 91.8898 102.958 91.0876C103.442 90.5855 104.382 90.0163 105.085 89.6269C105.113 89.611 105.145 89.6009 105.177 89.5971C105.21 89.5933 105.243 89.596 105.274 89.605C105.306 89.614 105.335 89.629 105.361 89.6494C105.386 89.6697 105.408 89.6949 105.424 89.7234C105.44 89.752 105.45 89.7835 105.453 89.816C105.457 89.8485 105.455 89.8814 105.446 89.9129C105.437 89.9443 105.422 89.9737 105.401 89.9994C105.381 90.025 105.356 90.0464 105.327 90.0623C104.601 90.431 103.924 90.8917 103.315 91.4331C102.601 92.1749 101.594 94.1497 101.594 96.216C101.594 97.9855 102.297 101.039 104.931 101.26C104.995 101.265 105.054 101.295 105.097 101.343C105.139 101.391 105.162 101.454 105.159 101.518C105.156 101.582 105.129 101.643 105.083 101.688C105.036 101.732 104.974 101.757 104.91 101.757L104.91 101.756Z" fill="#E4B4AB"/>
<path d="M104.103 112.886H104.098C103.75 112.875 103.408 112.789 103.096 112.634C102.784 112.48 102.509 112.26 102.289 111.989C101.217 110.774 100.803 108.539 100.957 107.053C101.178 104.939 104.325 103.012 104.459 102.932C104.516 102.897 104.583 102.887 104.647 102.903C104.711 102.919 104.767 102.959 104.801 103.016C104.835 103.072 104.845 103.14 104.829 103.204C104.814 103.268 104.773 103.323 104.716 103.358C104.685 103.376 101.647 105.236 101.453 107.105C101.309 108.485 101.683 110.551 102.662 111.659C102.837 111.877 103.056 112.055 103.306 112.181C103.555 112.307 103.829 112.377 104.108 112.388C104.141 112.388 104.173 112.395 104.203 112.408C104.233 112.421 104.26 112.439 104.283 112.463C104.306 112.486 104.324 112.514 104.336 112.544C104.349 112.574 104.355 112.607 104.354 112.639C104.354 112.672 104.347 112.704 104.334 112.734C104.322 112.764 104.303 112.792 104.28 112.814C104.256 112.837 104.229 112.855 104.198 112.868C104.168 112.88 104.136 112.886 104.103 112.886Z" fill="#E4B4AB"/>
<path d="M38.3447 77.8191L38.5313 76.3629C38.5313 76.3629 39.2045 70.5017 39.6512 69.0458C40.0979 67.5899 42.2272 62.7362 42.6752 59.7496C43.1233 56.7629 44.206 51.835 44.206 50.3042C44.206 48.7735 44.43 41.9415 44.6906 40.6722C44.6906 40.6722 44.9147 40.4856 45.0455 40.6162C45.4653 40.1621 46.014 39.8471 46.6179 39.7136C47.2218 39.5802 47.8521 39.6346 48.4242 39.8696C50.4962 40.6722 54.22 44.2469 54.276 49.399C54.332 54.551 53.4922 59.311 52.6801 61.4389C52.6801 61.4389 52.5681 74.7403 51.812 76.4189L51.616 78.0057L38.3447 77.8191Z" fill="#FCDCC7"/>
<path d="M51.8072 76.4189C52.5633 74.739 52.6753 61.4389 52.6753 61.4389C53.1869 60.0972 53.7098 57.7078 54.0125 54.8342C52.8089 59.2388 51.4432 59.0745 51.4432 61.5789C51.4432 64.2669 45.4745 73.8617 49.3712 77.483C49.5514 77.6502 50.1594 78.1766 50.3279 78.3508L51.6346 80.157L51.8072 76.4189Z" fill="#FFC8BC"/>
<path d="M46.3126 49.8863C46.7827 49.4084 46.9693 43.0242 46.9693 43.0242C46.9693 43.0242 45.2428 41.3104 45.0468 40.6162C44.9159 40.4856 44.6919 40.6722 44.6919 40.6722C44.4307 41.9415 44.2072 48.7737 44.2072 50.3042C44.2072 50.3812 44.2027 50.4725 44.1973 50.5656C44.1973 50.5656 45.8433 50.3642 46.3126 49.8863Z" fill="#FFF3EA"/>
<path d="M44.3376 50.6704C44.3062 50.6705 44.2759 50.6587 44.2528 50.6373C44.2297 50.616 44.2156 50.5867 44.2132 50.5553C44.2109 50.524 44.2205 50.4929 44.2401 50.4683C44.2597 50.4438 44.2879 50.4276 44.319 50.4229C45.0498 50.3139 45.9346 50.0934 46.2232 49.7988C46.5383 49.4784 46.769 45.5281 46.8425 43.0743C46.5784 42.8094 45.1144 41.3171 44.9262 40.651C44.9173 40.6193 44.9214 40.5853 44.9375 40.5566C44.9537 40.5279 44.9805 40.5068 45.0123 40.4979C45.044 40.489 45.0779 40.4931 45.1066 40.5092C45.1353 40.5253 45.1564 40.5522 45.1653 40.5839C45.3191 41.1273 46.5824 42.4671 47.0558 42.937C47.0679 42.949 47.0775 42.9633 47.0838 42.9792C47.0902 42.995 47.0932 43.012 47.0927 43.0291C47.0612 44.1034 46.8805 49.487 46.4002 49.976C45.9933 50.3898 44.8349 50.6004 44.3559 50.6712C44.3498 50.6714 44.3437 50.6712 44.3376 50.6704Z" fill="#E4B4AB"/>
<path d="M51.6175 78.2547C51.6072 78.2548 51.5968 78.2541 51.5866 78.2526C51.5213 78.2442 51.462 78.2104 51.4216 78.1584C51.3812 78.1064 51.3631 78.0405 51.3712 77.9752L51.5672 76.3885C51.5701 76.3638 51.5769 76.3397 51.5871 76.3171C52.1679 75.026 52.3949 66.0193 52.4334 61.437C52.4338 61.4074 52.4394 61.3782 52.4501 61.3506C53.2759 59.1855 54.0834 54.3856 54.0293 49.4019C53.9754 44.3667 50.2947 40.8604 48.3361 40.1017C47.8126 39.883 47.2345 39.8305 46.6802 39.9514C46.1258 40.0723 45.6221 40.3607 45.2372 40.7775C45.1941 40.8264 45.1336 40.8564 45.0686 40.8611C45.0037 40.8658 44.9395 40.8449 44.8898 40.8028C44.8401 40.7607 44.8089 40.7009 44.8028 40.636C44.7968 40.5712 44.8164 40.5065 44.8575 40.456C45.3131 39.9658 45.9066 39.6252 46.5598 39.4792C47.2129 39.3331 47.8949 39.3885 48.5159 39.638C50.9075 40.564 54.4717 44.3062 54.5272 49.3962C54.581 54.4109 53.7678 59.2574 52.9307 61.486C52.9221 62.4656 52.7961 74.6741 52.0567 76.4838L51.8653 78.0355C51.8579 78.0961 51.8287 78.1518 51.783 78.1922C51.7374 78.2326 51.6785 78.2548 51.6175 78.2547Z" fill="#E4B4AB"/>
<path d="M50.1594 62.1638C50.0935 62.1652 50.0297 62.1405 49.982 62.0949C49.9344 62.0493 49.9068 61.9867 49.9053 61.9208C49.9039 61.8549 49.9287 61.7911 49.9742 61.7434C50.0198 61.6958 50.0824 61.6682 50.1483 61.6667C51.9869 61.583 52.3991 61.3584 52.464 61.3121C52.4899 61.2699 52.5276 61.2362 52.5724 61.215C52.6172 61.1939 52.6672 61.1863 52.7163 61.1931C52.7486 61.1981 52.7796 61.2093 52.8076 61.2263C52.8356 61.2433 52.8599 61.2656 52.8792 61.292C52.8986 61.3184 52.9125 61.3483 52.9203 61.3801C52.928 61.4119 52.9294 61.4448 52.9244 61.4772C52.9026 61.6169 52.8369 62.0426 50.1696 62.1635L50.1594 62.1638Z" fill="#E4B4AB"/>
</g>
<path d="M65.5577 22.9903C66.707 18.8691 70.9796 16.4599 75.1008 17.6091L113.904 28.4301C118.025 29.5793 120.434 33.8519 119.285 37.9731L95.7009 122.544C94.5517 126.665 90.2791 129.074 86.1579 127.925L47.3548 117.104C43.2336 115.955 40.8244 111.682 41.9737 107.561L65.5577 22.9903Z" fill="#111520"/>
<path d="M67.3507 26.1717C68.5 22.0505 72.7725 19.6413 76.8938 20.7905L114.702 31.334C119.373 32.6365 122.103 37.4788 120.801 42.1495L97.9101 124.233C96.531 129.178 91.4039 132.069 86.4584 130.69L49.1478 120.285C45.0266 119.136 42.6174 114.864 43.7666 110.742L67.3507 26.1717Z" fill="#111520"/>
<path d="M67.5472 23.5456C68.39 20.5234 71.5232 18.7566 74.5455 19.5994L113.348 30.4203C116.371 31.2631 118.137 34.3963 117.295 37.4186L93.7106 121.989C92.8678 125.011 89.7346 126.778 86.7124 125.935L47.9093 115.115C44.8871 114.272 43.1204 111.139 43.9632 108.116L67.5472 23.5456Z" fill="#F3F7FF"/>
<path d="M81.0127 21.4026L106.881 28.6165L106.188 31.1039C105.805 32.4777 104.38 33.2807 103.007 32.8976L82.1128 27.071C80.739 26.6879 79.936 25.2637 80.319 23.89L81.0127 21.4026Z" fill="#111520"/>
<path d="M116.301 48.6689C116.416 48.2568 116.843 48.0159 117.255 48.1308C117.667 48.2458 117.908 48.673 117.793 49.0851L114.602 60.5271C114.487 60.9392 114.06 61.1801 113.648 61.0652C113.236 60.9502 112.995 60.523 113.11 60.1109L116.301 48.6689Z" fill="#59616B"/>
<path d="M99.8493 28.2641C100.433 28.4269 100.813 28.8929 100.698 29.3051C100.583 29.7172 100.017 29.9193 99.4332 29.7565L83.2272 25.2372C82.6435 25.0744 82.2634 24.6084 82.3784 24.1962C82.4933 23.7841 83.0597 23.582 83.6434 23.7448L99.8493 28.2641Z" fill="#59616B"/>
<path d="M111.584 65.583C111.699 65.1709 112.126 64.93 112.538 65.0449C112.95 65.1598 113.191 65.5871 113.076 65.9992L111.828 70.4765C111.713 70.8886 111.286 71.1295 110.873 71.0146C110.461 70.8997 110.22 70.4724 110.335 70.0603L111.584 65.583Z" fill="#59616B"/>
<path d="M104.266 30.3002C104.151 30.7123 103.724 30.9533 103.311 30.8383C102.899 30.7234 102.658 30.2962 102.773 29.884C102.888 29.4719 103.316 29.231 103.728 29.3459C104.14 29.4608 104.381 29.8881 104.266 30.3002Z" fill="#59616B"/>
<g filter="url(#filter0_d_249_17685)">
<path d="M37.903 89.9342C38.2861 88.5604 39.7103 87.7573 41.0841 88.1404L75.4098 97.7128C76.7836 98.0959 77.5866 99.5201 77.2035 100.894L74.7064 109.848C74.3233 111.222 72.8991 112.025 71.5254 111.642L37.1996 102.07C35.8259 101.687 35.0228 100.262 35.4059 98.8887L37.903 89.9342Z" fill="white"/>
</g>
<path d="M40.9443 91.855L74.4377 101.195L74.1602 102.19L40.6669 92.8499L40.9443 91.855Z" fill="#F1F1F1"/>
<path d="M40.0293 94.8158L61.6684 100.85L61.391 101.845L39.7518 95.8107L40.0293 94.8158Z" fill="#F1F1F1"/>
<path d="M39.2266 97.8098L66.3064 105.362L66.0289 106.356L38.9491 98.8048L39.2266 97.8098Z" fill="#F1F1F1"/>
<g filter="url(#filter1_d_249_17685)">
<path d="M59.6872 77.0428C60.0703 75.6691 61.4945 74.866 62.8682 75.2491L97.194 84.8214C98.5677 85.2045 99.3708 86.6287 98.9877 88.0024L96.4906 96.957C96.1075 98.3307 94.6833 99.1338 93.3096 98.7507L58.9838 89.1784C57.6101 88.7953 56.807 87.3711 57.1901 85.9973L59.6872 77.0428Z" fill="white"/>
</g>
<path d="M62.7285 78.9637L96.2219 88.304L95.9444 89.2989L62.4511 79.9587L62.7285 78.9637Z" fill="#F1F1F1"/>
<path d="M61.8125 81.9244L83.4516 87.9589L83.1742 88.9538L61.535 82.9194L61.8125 81.9244Z" fill="#F1F1F1"/>
<path d="M61.0107 84.9187L88.0906 92.4704L87.8131 93.4654L60.7333 85.9137L61.0107 84.9187Z" fill="#F1F1F1"/>
<g opacity="0.48">
<path fill-rule="evenodd" clip-rule="evenodd" d="M71.7432 49.1588L73.2784 52.808L70.3716 54.1235L71.7432 49.1588Z" fill="#E55300"/>
<path fill-rule="evenodd" clip-rule="evenodd" d="M71.3213 54.3862L73.5124 53.3822L74.3283 55.2169L71.3213 54.3862Z" fill="#E55300"/>
<path fill-rule="evenodd" clip-rule="evenodd" d="M72.1848 47.5555L72.5848 48.51L74.2404 52.3953L75.2437 51.9646C75.2437 51.9646 74.7846 50.969 74.5755 49.9417C74.1666 47.9333 75.1035 47.012 75.1035 47.012L72.5312 46.3014L72.1848 47.5555Z" fill="#E55300"/>
<path fill-rule="evenodd" clip-rule="evenodd" d="M74.4663 52.9862L75.4949 52.5227C75.4949 52.5227 76.0019 53.8009 76.8596 54.3065C77.9835 54.969 78.7422 54.3173 78.7422 54.3173L78.1984 56.2857L75.5314 55.5488L76.2772 55.1923C76.2772 55.1923 75.9053 55.3159 75.2855 54.5696C74.9197 54.1291 74.4663 52.9862 74.4663 52.9862Z" fill="#E55300"/>
<path fill-rule="evenodd" clip-rule="evenodd" d="M76.1247 47.2871C76.1247 47.2871 75.7568 47.5788 75.6997 48.5257C75.6387 49.5377 76.1669 50.7726 76.1712 50.7494C76.1712 50.7494 76.5007 49.7592 77.2501 49.3316C78.8474 48.4204 80.0577 49.5599 80.0577 49.5599L80.3606 48.4635L76.1247 47.2871Z" fill="#E55300"/>
<path fill-rule="evenodd" clip-rule="evenodd" d="M79.692 50.8849C79.692 50.8849 79.0894 49.9858 78.4021 49.7959C77.5229 49.553 76.8322 50.1834 76.6793 50.7369C76.4565 51.5432 76.7177 52.0975 76.9968 52.5926C77.3979 53.3042 77.9071 54.0929 78.8758 53.839C79.1292 52.9219 79.692 50.8849 79.692 50.8849Z" fill="#E55300"/>
<path fill-rule="evenodd" clip-rule="evenodd" d="M89.5771 51.004L91.4648 51.5255C91.4648 51.5255 92.4398 54.5112 92.9735 55.7809C93.5073 57.0507 94.0638 58.4827 94.0638 58.4827C94.0638 58.4827 95.0152 55.0386 95.5091 53.2512C95.5715 53.0252 95.07 52.5215 95.07 52.5215L97.2467 53.1229C97.2467 53.1229 96.4517 53.2181 96.3764 53.4908C95.7616 55.716 94.2738 61.1014 94.2738 61.1014C94.2738 61.1014 93.6931 60.5333 93.1646 59.4185C92.5708 58.1659 90.5927 53.2247 90.5927 53.2247C90.5927 53.2247 89.5122 57.1356 89.1161 58.5696C89.0412 58.8404 89.5232 59.4145 89.5232 59.4145L87.4145 58.832C87.4145 58.832 88.1068 58.5787 88.1807 58.3112C88.7132 56.384 89.5054 53.5164 89.9992 51.7289C90.0656 51.4888 89.5771 51.004 89.5771 51.004Z" fill="#006685"/>
<path fill-rule="evenodd" clip-rule="evenodd" d="M98.4658 53.4595L100.888 54.1288C100.888 54.1288 100.152 54.2584 100.081 54.5183C99.5833 56.3188 98.7585 59.3041 98.2647 61.0915C98.1862 61.3756 98.7259 61.9567 98.7259 61.9567L96.3032 61.2874C96.3032 61.2874 97.0223 61.0442 97.0982 60.7693C97.6912 58.6228 98.4168 55.9965 98.9142 54.1961C98.9832 53.9462 98.4658 53.4595 98.4658 53.4595Z" fill="#006685"/>
<path fill-rule="evenodd" clip-rule="evenodd" d="M82.4492 49.0349C82.4492 49.0349 82.9905 49.5229 82.92 49.7777C82.4226 51.5782 81.6971 54.2045 81.1041 56.3509C81.0269 56.6303 80.2866 56.8628 80.2866 56.8628C80.2866 56.8628 83.4244 57.7297 83.8757 57.8544C84.1 57.9164 86.7264 58.198 87.2636 56.2534C87.8009 54.3088 85.8996 53.5875 85.8996 53.5875C85.8996 53.5875 87.1802 53.5841 87.5477 52.2537C87.9439 50.8196 86.2627 50.0885 86.0383 50.0265C85.5722 49.8977 82.4492 49.0349 82.4492 49.0349ZM83.4677 52.7769L84.1438 50.3297C84.1438 50.3297 85.1841 50.6171 85.6018 50.7325C85.8262 50.7945 86.5386 51.2743 86.2691 52.2499C86.047 53.054 85.1501 53.2417 84.9257 53.1798C84.4172 53.0393 83.4677 52.7769 83.4677 52.7769ZM83.2903 53.4188C83.2903 53.4188 84.7484 53.8216 84.9727 53.8836C85.1971 53.9456 86.4252 54.6563 86.1067 55.8092C85.782 56.9845 84.3434 57.0354 84.1191 56.9734C83.8948 56.9115 82.4367 56.5086 82.4367 56.5086L83.2903 53.4188Z" fill="#006685"/>
</g>
<path d="M89.8395 105.57C89.6306 105.356 89.3213 105.276 89.033 105.36L82.3089 107.315C82.0046 107.4 81.789 107.642 81.7309 107.951C81.6716 108.264 81.8788 108.663 82.1496 108.829L84.2521 110.121C84.4678 110.254 84.7461 110.221 84.9245 110.041L87.3321 107.618C87.4533 107.492 87.6539 107.492 87.7751 107.618C87.8963 107.74 87.8963 107.938 87.7751 108.064L85.3633 110.487C85.1845 110.666 85.151 110.946 85.2827 111.163L86.5673 113.286C86.7178 113.539 86.9769 113.682 87.2611 113.682C87.2945 113.682 87.3321 113.682 87.3655 113.678C87.6915 113.635 87.9506 113.413 88.0467 113.097L90.0401 106.382C90.1279 106.096 90.0485 105.785 89.8395 105.57Z" fill="#D1E8F1"/>
</g>
<defs>
<filter id="filter0_d_249_17685" x="33.3105" y="87.0449" width="53.9883" height="35.6927" filterUnits="userSpaceOnUse" color-interpolation-filters="sRGB">
<feFlood flood-opacity="0" result="BackgroundImageFix"/>
<feColorMatrix in="SourceAlpha" type="matrix" values="0 0 0 0 0 0 0 0 0 0 0 0 0 0 0 0 0 0 127 0" result="hardAlpha"/>
<feOffset dx="4" dy="5"/>
<feGaussianBlur stdDeviation="3"/>
<feComposite in2="hardAlpha" operator="out"/>
<feColorMatrix type="matrix" values="0 0 0 0 0.913725 0 0 0 0 0.945098 0 0 0 0 0.992157 0 0 0 0.43 0"/>
<feBlend mode="normal" in2="BackgroundImageFix" result="effect1_dropShadow_249_17685"/>
<feBlend mode="normal" in="SourceGraphic" in2="effect1_dropShadow_249_17685" result="shape"/>
</filter>
<filter id="filter1_d_249_17685" x="55.0947" y="74.1536" width="53.9883" height="35.6927" filterUnits="userSpaceOnUse" color-interpolation-filters="sRGB">
<feFlood flood-opacity="0" result="BackgroundImageFix"/>
<feColorMatrix in="SourceAlpha" type="matrix" values="0 0 0 0 0 0 0 0 0 0 0 0 0 0 0 0 0 0 127 0" result="hardAlpha"/>
<feOffset dx="4" dy="5"/>
<feGaussianBlur stdDeviation="3"/>
<feComposite in2="hardAlpha" operator="out"/>
<feColorMatrix type="matrix" values="0 0 0 0 0.913725 0 0 0 0 0.945098 0 0 0 0 0.992157 0 0 0 0.43 0"/>
<feBlend mode="normal" in2="BackgroundImageFix" result="effect1_dropShadow_249_17685"/>
<feBlend mode="normal" in="SourceGraphic" in2="effect1_dropShadow_249_17685" result="shape"/>
</filter>
<linearGradient id="paint0_linear_249_17685" x1="-39.4737" y1="-82.4013" x2="96.2171" y2="156.414" gradientUnits="userSpaceOnUse">
<stop stop-color="#FFB98A"/>
<stop offset="1" stop-color="#FFDBC3" stop-opacity="0"/>
</linearGradient>
<clipPath id="clip0_249_17685">
<rect x="-15.79" y="21.4224" width="134.63" height="134.63" rx="67.3149" fill="white"/>
</clipPath>
</defs>
</svg>
