<svg width="150" height="150" viewBox="0 0 150 150" fill="none" xmlns="http://www.w3.org/2000/svg">
<circle cx="75" cy="75" r="75" fill="url(#paint0_linear_249_18815)"/>
<mask id="mask0_249_18815" style="mask-type:alpha" maskUnits="userSpaceOnUse" x="0" y="0" width="150" height="150">
<circle cx="75" cy="75" r="75" fill="#FF966A"/>
</mask>
<g mask="url(#mask0_249_18815)">
<g clip-path="url(#clip0_249_18815)">
<path d="M114.308 80.9643C114.308 80.9643 112.404 78.6123 111.481 77.8002C110.558 76.9881 108.345 73.9363 107.337 73.2082C106.329 72.4802 101.625 71.6217 101.625 71.6217V61.8775C101.625 61.8775 106.815 58.8163 107.897 58.0696C108.98 57.323 111.108 55.2322 110.436 52.619C109.764 50.0058 108.569 49.4084 104.164 50.2296C99.7586 51.0508 65.3367 76.3629 65.3367 76.3629H38.531C38.531 76.3629 31.0645 96.8964 29.4217 101.6C27.779 106.304 22.4029 114.256 22.4029 114.256C22.4029 114.256 20.5364 116.159 19.8269 117.205C19.1174 118.25 18.5205 121.76 18.5205 121.76C13.2729 127.795 -0.370272 142.535 -13.2129 156.052H34.3537C39.0278 147.446 47.1923 137.44 47.1923 137.44C55.1444 137.048 66.606 126.315 66.606 126.315L101.811 103.989H105.601V103.299C105.451 103.112 104.499 102.636 104.499 102.636H101.867V91.1097H105.918V90.2322L105.908 89.4764H101.568V81.8324H102.464C103.747 83.4945 105.776 84.8306 107.054 85.5689C107.808 86.0202 108.66 86.2831 109.537 86.3352C115.563 86.5999 114.308 80.9643 114.308 80.9643Z" fill="#FCDCC7"/>
<path d="M52.3999 116.907C52.3999 116.907 51.5598 120.434 49.7119 122.339C47.864 124.244 43.16 125.195 43.16 125.195C42.712 126.875 40.3597 130.459 40.3597 130.459C40.3597 130.459 38.9036 132.363 35.7678 135.275C33.2693 137.595 23.5267 150.782 19.666 156.052H34.3533C39.0274 147.446 47.1919 137.44 47.1919 137.44C55.144 137.048 66.6055 126.315 66.6055 126.315L73.7361 121.793V116.907H52.3999Z" fill="#FFC8BC"/>
<path d="M108.54 84.5098C104.203 83.4753 104.536 74.6258 105.433 73.7858C105.832 73.4193 106.296 73.1292 106.801 72.9298C105.225 72.2776 101.624 71.6206 101.624 71.6206V61.8775C101.624 61.8775 106.814 58.8163 107.897 58.0696C108.862 57.3933 109.639 56.4815 110.153 55.4206C108.895 57.6154 105.433 57.379 105.433 57.379V50.0233C105.04 50.0772 104.623 50.1439 104.163 50.2296C103.661 50.3233 102.754 50.7474 101.568 51.403V104.143L101.811 103.989H105.6V103.299C105.451 103.112 104.498 102.636 104.498 102.636H101.867V91.1097H105.918V90.2321L105.909 89.4763H101.568V81.8323H102.464C103.747 83.4945 105.776 84.8305 107.055 85.5688C107.808 86.0202 108.66 86.2831 109.537 86.3351C113.081 86.4908 114.101 84.6084 114.344 83.0289L114.28 83.027C114.056 84.3709 111.592 85.239 108.54 84.5098Z" fill="#FFC8BC"/>
<path d="M43.1595 125.444C43.095 125.445 43.0328 125.42 42.986 125.376C42.9391 125.331 42.9114 125.271 42.9085 125.206C42.9056 125.142 42.9278 125.079 42.9704 125.03C43.0131 124.982 43.0729 124.952 43.1371 124.947C50.7542 124.245 52.4764 116.927 52.4928 116.853C52.508 116.789 52.5475 116.734 52.6029 116.699C52.6583 116.665 52.7251 116.653 52.789 116.667C52.8528 116.682 52.9085 116.72 52.9441 116.775C52.9796 116.83 52.9922 116.897 52.9791 116.961C52.9616 117.038 51.1673 124.706 43.1829 125.442C43.1751 125.443 43.1673 125.444 43.1595 125.444Z" fill="#E4B4AB"/>
<path d="M45.8483 137.148C45.8047 137.148 45.7619 137.137 45.7241 137.115C45.6863 137.094 45.6549 137.062 45.6328 137.025C42.675 131.985 36.702 128.131 36.6417 128.093C36.6142 128.075 36.5905 128.052 36.5718 128.025C36.5532 127.998 36.54 127.968 36.533 127.936C36.5261 127.904 36.5255 127.871 36.5313 127.839C36.5371 127.807 36.5492 127.776 36.5669 127.748C36.5846 127.721 36.6075 127.697 36.6343 127.679C36.6612 127.66 36.6915 127.647 36.7234 127.64C36.7554 127.633 36.7884 127.632 36.8206 127.638C36.8528 127.644 36.8835 127.656 36.911 127.674C36.9716 127.713 43.0436 131.629 46.0634 136.773C46.0855 136.811 46.0973 136.854 46.0975 136.898C46.0976 136.942 46.0862 136.985 46.0643 137.023C46.0425 137.061 46.011 137.093 45.973 137.115C45.935 137.137 45.8919 137.148 45.848 137.148H45.8483Z" fill="#E4B4AB"/>
<path d="M40.3601 130.708C40.3164 130.708 40.2734 130.696 40.2357 130.674C40.2073 130.658 40.1825 130.636 40.1626 130.611C40.1427 130.585 40.1282 130.555 40.1197 130.523C40.1113 130.492 40.1092 130.459 40.1135 130.427C40.1178 130.394 40.1285 130.363 40.1449 130.335C40.2526 130.148 42.8329 125.749 46.65 124.951C50.2599 124.197 50.845 124.213 50.9193 124.22C50.9518 124.224 50.9831 124.234 51.0115 124.251C51.0399 124.267 51.0648 124.289 51.0849 124.314C51.1049 124.34 51.1196 124.37 51.1281 124.401C51.1367 124.433 51.1389 124.466 51.1348 124.498C51.1254 124.564 51.0912 124.622 51.0392 124.663C50.9872 124.703 50.9216 124.721 50.8563 124.714C50.8469 124.714 50.2866 124.7 46.752 125.439C43.1547 126.191 40.6008 130.54 40.5755 130.584C40.5536 130.622 40.5222 130.653 40.4844 130.675C40.4466 130.696 40.4037 130.708 40.3601 130.708Z" fill="#E4B4AB"/>
<path d="M26.8714 143.322C26.8435 143.321 26.8166 143.312 26.7947 143.295C26.7687 143.274 26.752 143.244 26.748 143.212C26.744 143.179 26.7531 143.146 26.7734 143.12C30.0314 138.954 35.7774 130.914 35.8353 130.834C35.8446 130.82 35.8566 130.809 35.8705 130.8C35.8843 130.791 35.8998 130.785 35.916 130.783C35.9322 130.78 35.9488 130.781 35.9648 130.784C35.9808 130.788 35.9958 130.795 36.009 130.805C36.0357 130.824 36.0538 130.853 36.0591 130.886C36.0645 130.919 36.0567 130.952 36.0375 130.979C35.9802 131.059 30.2309 139.104 26.9697 143.273C26.958 143.288 26.9431 143.3 26.926 143.309C26.909 143.317 26.8903 143.321 26.8714 143.322Z" fill="#E4B4AB"/>
<path d="M21.8254 153.24C21.8024 153.24 21.7798 153.234 21.7602 153.221C21.7406 153.209 21.7247 153.192 21.7144 153.171C21.704 153.151 21.6996 153.128 21.7017 153.105C21.7037 153.082 21.712 153.06 21.7258 153.041C21.8209 152.913 31.2996 140.218 33.1809 138.018C35.0927 135.784 39.1011 132.149 39.4595 131.856C39.4851 131.836 39.5176 131.827 39.55 131.83C39.5824 131.834 39.6121 131.85 39.6327 131.875C39.6533 131.9 39.6632 131.933 39.6603 131.965C39.6574 131.998 39.6418 132.028 39.617 132.049C39.2608 132.34 35.2731 135.956 33.3702 138.18C31.4937 140.374 22.0204 153.062 21.9248 153.19C21.9132 153.205 21.8982 153.218 21.881 153.227C21.8638 153.235 21.8447 153.24 21.8254 153.24Z" fill="#E4B4AB"/>
<path d="M102.65 76.8359C102.609 76.836 102.569 76.8259 102.533 76.8067C102.497 76.7875 102.466 76.7597 102.444 76.7257C102.421 76.6918 102.407 76.6528 102.403 76.6121C102.399 76.5715 102.404 76.5304 102.42 76.4926C103.347 74.2344 105.14 73.5451 105.215 73.5168C105.277 73.4942 105.345 73.4969 105.404 73.5243C105.464 73.5518 105.511 73.6017 105.534 73.6633C105.557 73.7248 105.554 73.793 105.527 73.8529C105.5 73.9127 105.451 73.9595 105.389 73.9829C104.237 74.5265 103.339 75.4929 102.881 76.6814C102.862 76.7271 102.83 76.7662 102.789 76.7937C102.748 76.8212 102.7 76.8359 102.65 76.8359Z" fill="#E4B4AB"/>
<path d="M52.0627 82.548C52.0102 82.5479 51.9591 82.5313 51.9166 82.5004C51.8741 82.4696 51.8424 82.4262 51.826 82.3763C50.8209 79.3067 49.2476 78.6742 49.2323 78.6683C49.1716 78.6445 49.1227 78.5978 49.096 78.5383C49.0693 78.4788 49.0671 78.4113 49.0897 78.3501C49.1122 78.289 49.1579 78.2391 49.2168 78.2113C49.2758 78.1834 49.3433 78.1798 49.4049 78.2011C49.4781 78.228 51.2105 78.8969 52.2994 82.2217C52.3199 82.2845 52.3146 82.3529 52.2847 82.4118C52.2548 82.4707 52.2028 82.5154 52.14 82.5359C52.115 82.5439 52.089 82.548 52.0627 82.548Z" fill="#E4B4AB"/>
<path d="M105.881 89.4866C105.881 89.4866 103.893 90.475 103.137 91.2588C102.381 92.0427 101.345 94.0861 101.345 96.2148C101.345 98.3436 102.241 101.283 104.91 101.507C107.58 101.731 109.483 100.928 110.099 98.9869C110.715 97.0455 110.379 94.6749 109.763 93.4802C109.147 92.2855 108.329 90.4037 107.365 89.9244C106.905 89.6792 106.4 89.5302 105.881 89.4866Z" fill="#FCDCC7"/>
<path d="M104.586 103.145C104.586 103.145 101.414 105.063 101.204 107.079C100.994 109.095 101.867 112.59 104.102 112.637C106.79 112.693 108.498 111.614 108.778 109.725C109.058 107.836 108.778 105.721 107.224 104.517C105.753 103.376 105.426 103.155 105.426 103.155L104.586 103.145Z" fill="#FCDCC7"/>
<path d="M109.247 77.0834C109.191 77.664 109.135 78.1551 110.674 78.6309C111.796 78.978 113.227 79.9742 113.925 80.4917C113.165 79.5475 112.35 78.6484 111.486 77.7991C110.932 77.2509 110.413 76.669 109.931 76.0568C109.621 76.3651 109.277 76.7687 109.247 77.0834Z" fill="#F3F3EA"/>
<path d="M108.435 92.9528C108.05 92.8 107.625 92.7818 107.228 92.9013C106.832 93.0207 106.487 93.2708 106.251 93.6109C106.503 93.4988 108.967 94.2549 109.667 95.6828C110.058 96.4801 110.178 97.678 110.208 98.5814C110.528 97.1838 110.491 95.7281 110.1 94.3486C109.708 93.718 109.124 93.229 108.435 92.9528Z" fill="#F3F3EA"/>
<path d="M108.324 105.884C108.068 105.351 107.694 104.884 107.23 104.517C106.494 103.946 106.046 103.606 105.779 103.408C105.864 104.115 106.057 105.192 106.465 105.428C106.919 105.689 107.714 105.668 108.324 105.884Z" fill="#F3F3EA"/>
<path d="M113.769 80.5014C113.743 80.5014 113.717 80.4931 113.696 80.4777C112.998 79.9696 111.673 79.0697 110.637 78.7498C109.123 78.2819 109.053 77.7856 109.121 77.082C109.148 76.8042 109.364 76.4627 109.757 76.0564C109.78 76.0327 109.812 76.0191 109.845 76.0187C109.878 76.0182 109.91 76.0309 109.934 76.054C109.957 76.0771 109.971 76.1086 109.971 76.1417C109.972 76.1748 109.959 76.2067 109.936 76.2304C109.669 76.4586 109.472 76.759 109.371 77.0958C109.317 77.665 109.278 78.0689 110.712 78.5118C111.782 78.8427 113.133 79.759 113.843 80.2763C113.864 80.2917 113.88 80.3134 113.888 80.3384C113.896 80.3633 113.896 80.3902 113.888 80.4152C113.88 80.4402 113.864 80.462 113.843 80.4774C113.822 80.4929 113.796 80.5013 113.77 80.5014H113.769Z" fill="#E4B4AB"/>
<path d="M110.178 98.1584C110.147 98.1584 110.117 98.1465 110.094 98.125C110.07 98.1036 110.056 98.0742 110.054 98.0428C110.03 97.2504 109.861 96.4691 109.554 95.738C108.886 94.3752 106.506 93.6679 106.296 93.7269C106.272 93.7376 106.245 93.7402 106.22 93.7342C106.194 93.7282 106.171 93.714 106.154 93.6937C106.137 93.6732 106.127 93.6478 106.125 93.6211C106.124 93.5945 106.13 93.568 106.144 93.5454C106.398 93.1845 106.765 92.9187 107.187 92.79C107.608 92.6612 108.061 92.677 108.473 92.8348C109.094 93.0685 109.631 93.4823 110.016 94.0233C110.035 94.0494 110.043 94.0819 110.038 94.1139C110.034 94.1459 110.017 94.1749 109.992 94.1948C109.966 94.2146 109.934 94.2237 109.902 94.2202C109.87 94.2167 109.84 94.2009 109.82 94.176C109.465 93.6746 108.968 93.2903 108.394 93.072C108.072 92.9423 107.719 92.9134 107.38 92.9893C107.042 93.0652 106.735 93.2423 106.499 93.4969C107.28 93.6181 109.177 94.4046 109.778 95.6289C110.099 96.3891 110.277 97.2019 110.304 98.0267C110.305 98.043 110.303 98.0593 110.298 98.0748C110.292 98.0903 110.284 98.1046 110.273 98.1169C110.263 98.1292 110.25 98.1393 110.235 98.1465C110.22 98.1538 110.204 98.1581 110.188 98.1592C110.185 98.1592 110.182 98.1589 110.178 98.1584Z" fill="#E4B4AB"/>
<path d="M108.064 105.931C108.054 105.931 108.044 105.93 108.034 105.927C107.841 105.88 107.634 105.847 107.432 105.814C107.076 105.78 106.728 105.686 106.403 105.535C106.069 105.342 105.825 104.686 105.676 103.585C105.672 103.552 105.681 103.519 105.701 103.493C105.721 103.466 105.751 103.449 105.784 103.445C105.816 103.441 105.849 103.45 105.875 103.47C105.901 103.49 105.919 103.52 105.924 103.552C106.055 104.53 106.275 105.174 106.527 105.319C106.826 105.454 107.146 105.538 107.472 105.569C107.678 105.602 107.891 105.636 108.095 105.687C108.124 105.694 108.15 105.712 108.167 105.737C108.184 105.762 108.191 105.793 108.188 105.823C108.184 105.853 108.169 105.88 108.147 105.901C108.124 105.921 108.095 105.932 108.064 105.932V105.931Z" fill="#E4B4AB"/>
<path d="M104.909 101.756C104.902 101.756 104.895 101.756 104.888 101.756C102.267 101.537 101.095 98.8154 101.095 96.216C101.095 94.0115 102.184 91.8898 102.957 91.0876C103.441 90.5855 104.381 90.0163 105.084 89.6269C105.112 89.611 105.144 89.6009 105.176 89.5971C105.209 89.5933 105.242 89.596 105.273 89.605C105.305 89.614 105.334 89.629 105.36 89.6494C105.385 89.6697 105.407 89.6949 105.423 89.7234C105.439 89.752 105.449 89.7835 105.452 89.816C105.456 89.8485 105.454 89.8814 105.445 89.9129C105.436 89.9443 105.421 89.9737 105.4 89.9994C105.38 90.025 105.355 90.0464 105.326 90.0623C104.6 90.431 103.923 90.8917 103.315 91.4331C102.6 92.1749 101.593 94.1497 101.593 96.216C101.593 97.9855 102.296 101.039 104.93 101.26C104.994 101.265 105.053 101.295 105.096 101.343C105.138 101.391 105.161 101.454 105.158 101.518C105.155 101.582 105.128 101.643 105.082 101.688C105.035 101.732 104.973 101.757 104.909 101.757L104.909 101.756Z" fill="#E4B4AB"/>
<path d="M104.102 112.886H104.097C103.749 112.875 103.407 112.789 103.095 112.634C102.783 112.48 102.508 112.26 102.288 111.989C101.216 110.774 100.802 108.539 100.956 107.053C101.177 104.939 104.324 103.012 104.458 102.932C104.515 102.897 104.582 102.887 104.646 102.903C104.71 102.919 104.766 102.959 104.8 103.016C104.834 103.072 104.844 103.14 104.828 103.204C104.813 103.268 104.772 103.323 104.715 103.358C104.685 103.376 101.646 105.236 101.452 107.105C101.308 108.485 101.682 110.551 102.661 111.659C102.836 111.877 103.055 112.055 103.305 112.181C103.554 112.307 103.828 112.377 104.107 112.388C104.14 112.388 104.172 112.395 104.202 112.408C104.232 112.421 104.259 112.439 104.282 112.463C104.305 112.486 104.323 112.514 104.335 112.544C104.348 112.574 104.354 112.607 104.353 112.639C104.353 112.672 104.346 112.704 104.333 112.734C104.321 112.764 104.302 112.792 104.279 112.814C104.255 112.837 104.228 112.855 104.198 112.868C104.167 112.88 104.135 112.886 104.102 112.886Z" fill="#E4B4AB"/>
<path d="M38.3447 77.8191L38.5313 76.3629C38.5313 76.3629 39.2045 70.5017 39.6512 69.0458C40.0979 67.5899 42.2272 62.7362 42.6752 59.7496C43.1233 56.7629 44.206 51.835 44.206 50.3042C44.206 48.7735 44.43 41.9415 44.6906 40.6722C44.6906 40.6722 44.9147 40.4856 45.0455 40.6162C45.4653 40.1621 46.014 39.8471 46.6179 39.7136C47.2218 39.5802 47.8521 39.6346 48.4242 39.8696C50.4962 40.6722 54.22 44.2469 54.276 49.399C54.332 54.551 53.4922 59.311 52.6801 61.4389C52.6801 61.4389 52.5681 74.7404 51.812 76.4189L51.616 78.0057L38.3447 77.8191Z" fill="#FCDCC7"/>
<path d="M51.8072 76.4189C52.5633 74.739 52.6753 61.4389 52.6753 61.4389C53.1869 60.0972 53.7098 57.7078 54.0125 54.8342C52.8089 59.2388 51.4432 59.0745 51.4432 61.5789C51.4432 64.2669 45.4745 73.8617 49.3712 77.483C49.5514 77.6502 50.1594 78.1766 50.3279 78.3508L51.6346 80.157L51.8072 76.4189Z" fill="#FFC8BC"/>
<path d="M46.3126 49.8863C46.7827 49.4084 46.9693 43.0242 46.9693 43.0242C46.9693 43.0242 45.2428 41.3104 45.0468 40.6162C44.9159 40.4856 44.6919 40.6722 44.6919 40.6722C44.4307 41.9415 44.2072 48.7737 44.2072 50.3042C44.2072 50.3812 44.2027 50.4725 44.1973 50.5656C44.1973 50.5656 45.8433 50.3642 46.3126 49.8863Z" fill="#FFF3EA"/>
<path d="M44.3386 50.6704C44.3072 50.6705 44.2769 50.6587 44.2538 50.6373C44.2307 50.616 44.2166 50.5867 44.2142 50.5553C44.2119 50.524 44.2215 50.4929 44.2411 50.4683C44.2607 50.4438 44.2889 50.4276 44.32 50.4229C45.0508 50.3139 45.9356 50.0934 46.2242 49.7988C46.5393 49.4784 46.77 45.5281 46.8435 43.0743C46.5794 42.8094 45.1154 41.3171 44.9272 40.651C44.9183 40.6193 44.9224 40.5853 44.9385 40.5566C44.9546 40.5279 44.9815 40.5068 45.0132 40.4979C45.0449 40.489 45.0789 40.4931 45.1076 40.5092C45.1363 40.5253 45.1574 40.5522 45.1663 40.5839C45.3201 41.1273 46.5834 42.4671 47.0568 42.937C47.0689 42.949 47.0785 42.9633 47.0848 42.9792C47.0912 42.995 47.0942 43.012 47.0937 43.0291C47.0622 44.1034 46.8815 49.487 46.4011 49.976C45.9943 50.3898 44.8359 50.6004 44.3569 50.6712C44.3508 50.6714 44.3447 50.6712 44.3386 50.6704Z" fill="#E4B4AB"/>
<path d="M51.6166 78.2547C51.6062 78.2548 51.5958 78.2541 51.5856 78.2526C51.5203 78.2442 51.461 78.2104 51.4206 78.1584C51.3802 78.1064 51.3621 78.0405 51.3702 77.9752L51.5662 76.3885C51.5692 76.3638 51.5759 76.3397 51.5861 76.3171C52.1669 75.026 52.3939 66.0193 52.4324 61.437C52.4328 61.4074 52.4384 61.3782 52.4491 61.3506C53.2749 59.1855 54.0824 54.3856 54.0283 49.4019C53.9745 44.3667 50.2937 40.8604 48.3351 40.1017C47.8116 39.883 47.2335 39.8305 46.6792 39.9514C46.1249 40.0723 45.6211 40.3607 45.2362 40.7775C45.1931 40.8264 45.1326 40.8564 45.0677 40.8611C45.0027 40.8658 44.9385 40.8449 44.8888 40.8028C44.8391 40.7607 44.8079 40.7009 44.8019 40.636C44.7958 40.5712 44.8155 40.5065 44.8565 40.456C45.3121 39.9658 45.9057 39.6252 46.5588 39.4792C47.2119 39.3331 47.894 39.3885 48.515 39.638C50.9065 40.564 54.4707 44.3062 54.5262 49.3962C54.58 54.4109 53.7669 59.2574 52.9297 61.486C52.9211 62.4656 52.7951 74.6741 52.0557 76.4838L51.8643 78.0355C51.857 78.0961 51.8277 78.1518 51.7821 78.1922C51.7364 78.2326 51.6775 78.2548 51.6166 78.2547Z" fill="#E4B4AB"/>
<path d="M50.1604 62.1638C50.0944 62.1652 50.0306 62.1405 49.983 62.0949C49.9354 62.0493 49.9078 61.9867 49.9063 61.9208C49.9048 61.8549 49.9296 61.7911 49.9752 61.7434C50.0208 61.6958 50.0834 61.6682 50.1493 61.6667C51.9878 61.583 52.4001 61.3584 52.465 61.3121C52.4909 61.2699 52.5286 61.2362 52.5734 61.215C52.6182 61.1939 52.6682 61.1863 52.7173 61.1931C52.7496 61.1981 52.7806 61.2093 52.8086 61.2263C52.8365 61.2433 52.8609 61.2656 52.8802 61.292C52.8996 61.3184 52.9135 61.3483 52.9212 61.3801C52.929 61.4119 52.9304 61.4448 52.9254 61.4772C52.9036 61.6169 52.8379 62.0426 50.1706 62.1635L50.1604 62.1638Z" fill="#E4B4AB"/>
</g>
<path d="M66.1765 23.0253C67.3535 18.885 71.6069 16.4315 75.6768 17.5453L113.997 28.0326C118.067 29.1464 120.412 33.4058 119.235 37.5461L95.082 122.51C93.905 126.65 89.6516 129.103 85.5817 127.99L47.2618 117.502C43.1919 116.388 40.8468 112.129 42.0238 107.989L66.1765 23.0253Z" fill="#111520"/>
<path d="M67.9704 26.2064C69.1474 22.066 73.4009 19.6125 77.4708 20.7264L114.808 30.9447C119.421 32.2071 122.078 37.0343 120.745 41.7267L97.3022 124.191C95.8898 129.16 90.7857 132.104 85.9018 130.767L49.0558 120.683C44.9859 119.569 42.6407 115.31 43.8177 111.17L67.9704 26.2064Z" fill="#111520"/>
<path d="M68.1456 23.5703C69.0085 20.5345 72.1268 18.7355 75.1105 19.5522L113.419 30.038C116.403 30.8547 118.122 33.9778 117.259 37.0136L93.1134 121.965C92.2506 125.001 89.1323 126.8 86.1486 125.983L47.8402 115.497C44.8565 114.68 43.1372 111.557 44.0001 108.521L68.1456 23.5703Z" fill="#F3F7FF"/>
<path d="M81.0625 21.4028L106.882 28.5107L106.164 31.0511C105.768 32.4542 104.335 33.2855 102.964 32.9081L82.1092 27.1671C80.738 26.7896 79.9479 25.3463 80.3445 23.9432L81.0625 21.4028Z" fill="#111520"/>
<path d="M116.338 48.67C116.454 48.2574 116.873 48.013 117.275 48.124C117.677 48.235 117.908 48.6594 117.792 49.072L114.567 60.5265C114.451 60.939 114.031 61.1835 113.63 61.0725C113.228 60.9615 112.997 60.5371 113.113 60.1245L116.338 48.67Z" fill="#59616B"/>
<path d="M99.8512 28.2249C100.434 28.3863 100.811 28.8607 100.692 29.2843C100.572 29.708 100.003 29.9206 99.4199 29.7591L83.2273 25.2768C82.6441 25.1154 82.2678 24.641 82.3869 24.2174C82.506 23.7937 83.0754 23.5811 83.6586 23.7426L99.8512 28.2249Z" fill="#59616B"/>
<path d="M111.611 65.5851C111.727 65.172 112.15 64.9272 112.554 65.0384C112.958 65.1495 113.191 65.5745 113.074 65.9875L111.804 70.4751C111.687 70.8882 111.265 71.133 110.861 71.0218C110.457 70.9107 110.224 70.4858 110.341 70.0727L111.611 65.5851Z" fill="#59616B"/>
<path d="M104.262 30.2947C104.144 30.7098 103.717 30.9557 103.308 30.844C102.899 30.7322 102.663 30.305 102.781 29.8899C102.899 29.4747 103.327 29.2288 103.736 29.3406C104.145 29.4523 104.38 29.8795 104.262 30.2947Z" fill="#59616B"/>
</g>
<path d="M114.332 91.349C117.597 95.9528 119.522 101.561 119.522 107.672C119.522 123.241 106.882 135.797 91.3969 135.797C83.5286 135.797 76.4137 132.532 71.3076 127.342C76.4137 134.541 84.7842 139.145 94.2429 139.145C109.812 139.145 122.368 126.505 122.368 111.02C122.368 103.403 119.271 96.455 114.332 91.349Z" fill="black"/>
<path d="M91.3982 135.797C106.967 135.797 119.523 123.157 119.523 107.672C119.523 101.561 117.598 95.9528 114.334 91.349C109.227 86.1593 102.113 82.8948 94.2442 82.8948C78.675 82.8948 66.1191 95.5343 66.1191 111.02C66.1191 117.13 68.0444 122.739 71.3089 127.342C76.4149 132.532 83.5299 135.797 91.3982 135.797Z" fill="#3CCB7F"/>
<path d="M89.0522 121.902L78.3379 111.187L82.5232 107.086L89.0522 113.531L102.361 100.222L106.547 104.323L89.0522 121.902Z" fill="white"/>
<rect x="69.7402" y="36.2858" width="40.0768" height="23.855" rx="2.18368" transform="rotate(15.5892 69.7402 36.2858)" fill="#FF7F08"/>
<path fill-rule="evenodd" clip-rule="evenodd" d="M91.5381 46.7948L92.1856 48.3449L90.9507 48.9L91.5381 46.7948Z" fill="white"/>
<path fill-rule="evenodd" clip-rule="evenodd" d="M91.3544 49.0124L92.2852 48.5888L92.6294 49.3682L91.3544 49.0124Z" fill="white"/>
<path fill-rule="evenodd" clip-rule="evenodd" d="M91.7266 46.1151L91.8953 46.5205L92.5937 48.1709L93.0199 47.9893C93.0199 47.9893 92.8262 47.5663 92.7385 47.1302C92.5672 46.2775 92.9657 45.8876 92.9657 45.8876L91.875 45.5833L91.7266 46.1151Z" fill="white"/>
<path fill-rule="evenodd" clip-rule="evenodd" d="M92.6893 48.422L93.1263 48.2264C93.1263 48.2264 93.3401 48.7694 93.7034 48.9848C94.1797 49.2672 94.5023 48.9915 94.5023 48.9915L94.2694 49.8261L93.1385 49.5106L93.4553 49.3601C93.4553 49.3601 93.2974 49.4121 93.0352 49.0948C92.8805 48.9075 92.6893 48.422 92.6893 48.422Z" fill="white"/>
<path fill-rule="evenodd" clip-rule="evenodd" d="M93.3985 46.0055C93.3985 46.0055 93.242 46.1289 93.2168 46.5306C93.1898 46.96 93.4126 47.4845 93.4145 47.4747C93.4145 47.4747 93.5554 47.0549 93.8738 46.8743C94.5526 46.4893 95.0649 46.9741 95.0649 46.9741L95.1946 46.5092L93.3985 46.0055Z" fill="white"/>
<path fill-rule="evenodd" clip-rule="evenodd" d="M94.9086 47.5359C94.9086 47.5359 94.6539 47.1537 94.3625 47.0724C93.9896 46.9684 93.6959 47.2352 93.6304 47.4699C93.535 47.8117 93.6452 48.0472 93.7631 48.2577C93.9326 48.56 94.1478 48.8952 94.5591 48.7885C94.6676 48.3997 94.9086 47.5359 94.9086 47.5359Z" fill="white"/>
<path fill-rule="evenodd" clip-rule="evenodd" d="M99.1025 47.5969L99.903 47.8202C99.903 47.8202 100.313 49.0882 100.539 49.6276C100.764 50.1669 100.998 50.7752 100.998 50.7752C100.998 50.7752 101.406 49.3148 101.617 48.5568C101.644 48.461 101.432 48.2468 101.432 48.2468L102.355 48.5043C102.355 48.5043 102.017 48.5438 101.985 48.6594C101.722 49.603 101.085 51.8866 101.085 51.8866C101.085 51.8866 100.839 51.6449 100.616 51.1713C100.365 50.6392 99.5311 48.5403 99.5311 48.5403C99.5311 48.5403 99.0684 50.1987 98.8987 50.8067C98.8667 50.9216 99.0706 51.1657 99.0706 51.1657L98.1764 50.9163C98.1764 50.9163 98.4705 50.8095 98.5021 50.6961C98.7301 49.8789 99.0694 48.6629 99.2809 47.905C99.3093 47.8031 99.1025 47.5969 99.1025 47.5969Z" fill="white"/>
<path fill-rule="evenodd" clip-rule="evenodd" d="M102.872 48.6484L103.899 48.9351C103.899 48.9351 103.587 48.9893 103.556 49.0995C103.343 49.8629 102.99 51.1288 102.779 51.8868C102.745 52.0072 102.973 52.2544 102.973 52.2544L101.946 51.9678C101.946 51.9678 102.251 51.8653 102.284 51.7488C102.538 50.8386 102.849 49.7249 103.062 48.9615C103.091 48.8555 102.872 48.6484 102.872 48.6484Z" fill="white"/>
<path fill-rule="evenodd" clip-rule="evenodd" d="M96.0801 46.7535C96.0801 46.7535 96.3092 46.9612 96.2791 47.0692C96.0661 47.8327 95.7553 48.9464 95.5014 49.8565C95.4684 49.975 95.154 50.0729 95.154 50.0729C95.154 50.0729 96.4845 50.4441 96.6759 50.4975C96.771 50.524 97.8852 50.6464 98.1152 49.8218C98.3453 48.9972 97.5393 48.6891 97.5393 48.6891C97.5393 48.6891 98.0827 48.689 98.2401 48.1249C98.4097 47.5167 97.6971 47.2047 97.602 47.1782C97.4043 47.123 96.0801 46.7535 96.0801 46.7535ZM96.5082 48.3425L96.7977 47.3048C96.7977 47.3048 97.2389 47.4279 97.416 47.4773C97.5111 47.5038 97.8129 47.7082 97.6975 48.1219C97.6024 48.4629 97.2216 48.5415 97.1265 48.515C96.9108 48.4548 96.5082 48.3425 96.5082 48.3425ZM96.4323 48.6147C96.4323 48.6147 97.0506 48.7872 97.1457 48.8137C97.2408 48.8403 97.7612 49.1432 97.6248 49.632C97.4857 50.1304 96.8752 50.1505 96.7801 50.1239C96.685 50.0974 96.0667 49.9249 96.0667 49.9249L96.4323 48.6147Z" fill="white"/>
<rect x="71.167" y="46.3486" width="6.46483" height="4.84862" rx="1.09184" transform="rotate(15.5892 71.167 46.3486)" fill="white"/>
<defs>
<linearGradient id="paint0_linear_249_18815" x1="-39.4737" y1="-82.4013" x2="96.2171" y2="156.414" gradientUnits="userSpaceOnUse">
<stop stop-color="#FFB98A"/>
<stop offset="1" stop-color="#FFDBC3" stop-opacity="0"/>
</linearGradient>
<clipPath id="clip0_249_18815">
<rect x="-15.79" y="21.4224" width="134.63" height="134.63" rx="67.315" fill="white"/>
</clipPath>
</defs>
</svg>
