<svg width="22" height="22" viewBox="0 0 22 22" fill="none" xmlns="http://www.w3.org/2000/svg">
<path opacity="0.7" d="M14.5165 18.141C13.4339 18.6805 12.239 18.965 10.9997 18.965C6.62846 18.965 3.08471 15.4118 3.08471 11.029C3.08471 10.1909 2.40707 9.51147 1.57116 9.51147C0.735256 9.51147 0.0576172 10.1909 0.0576172 11.029C0.0576172 17.0881 4.95664 22 10.9997 22C12.7091 22 14.3649 21.6059 15.8639 20.8588C16.6125 20.4857 16.9176 19.5749 16.5455 18.8244C16.1735 18.0738 15.265 17.7679 14.5165 18.141Z" fill="white"/>
<path d="M3.14286 11.0291C3.14286 6.67828 6.66069 3.15116 11 3.15116C15.3393 3.15116 18.8571 6.67828 18.8571 11.0291C18.8571 11.8992 19.5607 12.6046 20.4286 12.6046C21.2964 12.6046 22 11.8992 22 11.0291C22 4.93794 17.0751 0 11 0C4.92493 0 0 4.93794 0 11.0291C0 11.8992 0.703553 12.6046 1.57143 12.6046C2.4393 12.6046 3.14286 11.8992 3.14286 11.0291Z" fill="white"/>
</svg>
