<svg width="100" height="28" viewBox="0 0 100 28" fill="none" xmlns="http://www.w3.org/2000/svg">
<path fill-rule="evenodd" clip-rule="evenodd" d="M0 9.80566L8.33385 20.0675L0 26.8085V9.80566Z" fill="#E55300"/>
<path fill-rule="evenodd" clip-rule="evenodd" d="M3.35449 26.8085L9.6253 21.6879L13.9595 26.8085H3.35449Z" fill="#E55300"/>
<path fill-rule="evenodd" clip-rule="evenodd" d="M0 4.31472L2.17483 7.00011L11.1169 17.9072L14.0145 15.6549C14.0145 15.6549 11.609 12.8905 9.99377 9.80572C6.83589 3.77462 9.07159 0.0196533 9.07159 0.0196533H0V4.31472Z" fill="#E55300"/>
<path fill-rule="evenodd" clip-rule="evenodd" d="M12.3916 19.5909L15.3426 17.2117C15.3426 17.2117 18.161 20.8331 21.4289 21.6879C25.7114 22.808 27.6075 20.0676 27.6075 20.0676V26.8085H18.2013L20.3223 25.0185C20.3223 25.0185 19.2157 25.7386 16.5093 23.9087C14.9119 22.8287 12.3916 19.5909 12.3916 19.5909Z" fill="#E55300"/>
<path fill-rule="evenodd" clip-rule="evenodd" d="M12.6624 0C12.6624 0 11.721 1.25181 12.3911 4.31471C13.1074 7.58852 15.9559 11.0535 15.9493 10.9759C15.9493 10.9759 16.1325 7.53536 18.2009 5.51632C22.6097 1.21272 27.6071 3.77461 27.6071 3.77461V0.0196417L12.6624 0Z" fill="#E55300"/>
<path fill-rule="evenodd" clip-rule="evenodd" d="M27.6072 8.31153C27.6072 8.31153 24.819 5.98035 22.395 5.98035C19.2941 5.98035 17.6016 8.59353 17.6016 10.4891C17.6016 13.2502 18.9593 14.7843 20.322 16.1145C22.2803 18.0261 24.6628 20.0878 27.6072 18.4285C27.6072 15.2879 27.6072 8.31153 27.6072 8.31153Z" fill="#E55300"/>
<path fill-rule="evenodd" clip-rule="evenodd" d="M60.1074 0H66.7647C66.7647 0 72.6622 8.64297 75.5606 12.2139C78.4589 15.7848 81.5787 19.8522 81.5787 19.8522C81.5787 19.8522 81.5787 8.05721 81.5787 1.93558C81.5787 1.16178 79.4795 0 79.4795 0H87.1564C87.1564 0 84.6374 1.00168 84.6374 1.93558C84.6374 9.55636 84.6374 28 84.6374 28C84.6374 28 82.2204 26.7027 79.4795 23.6201C76.4 20.1565 65.4452 6.17323 65.4452 6.17323C65.4452 6.17323 65.4452 19.5671 65.4452 24.4779C65.4452 25.4055 67.5444 26.8085 67.5444 26.8085H60.1074C60.1074 26.8085 62.1466 25.3941 62.1466 24.4779C62.1466 17.8777 62.1466 8.05721 62.1466 1.93558C62.1466 1.11309 60.1074 0 60.1074 0Z" fill="#006685"/>
<path fill-rule="evenodd" clip-rule="evenodd" d="M91.4561 0H100C100 0 97.706 1.05948 97.706 1.94963C97.706 8.11567 97.706 18.3397 97.706 24.461C97.706 25.4337 100 26.8085 100 26.8085H91.4561C91.4561 26.8085 93.5921 25.4024 93.5921 24.461C93.5921 17.1101 93.5921 8.11567 93.5921 1.94963C93.5921 1.09383 91.4561 0 91.4561 0Z" fill="#006685"/>
<path fill-rule="evenodd" clip-rule="evenodd" d="M34.9697 0C34.9697 0 37.1849 1.07679 37.1849 1.94963C37.1849 8.11567 37.1849 17.1101 37.1849 24.461C37.1849 25.4179 34.9697 26.8085 34.9697 26.8085C34.9697 26.8085 46.0361 26.8085 47.6278 26.8085C48.4189 26.8085 57.2795 25.396 57.2795 18.7362C57.2795 12.0763 50.3967 11.4527 50.3967 11.4527C50.3967 11.4527 54.5897 10.3163 54.5897 5.75981C54.5897 0.84841 48.4189 0 47.6278 0C45.9837 0 34.9697 0 34.9697 0ZM41.6943 11.0114V2.63023C41.6943 2.63023 45.3634 2.63023 46.8366 2.63023C47.6278 2.63023 50.3967 3.53075 50.3967 6.87183C50.3967 9.6257 47.6278 11.0114 46.8366 11.0114C45.043 11.0114 41.6943 11.0114 41.6943 11.0114ZM41.6943 13.2096C41.6943 13.2096 46.8366 13.2096 47.6278 13.2096C48.4189 13.2096 53.0865 14.3916 53.0865 18.3397C53.0865 22.365 48.4189 23.7914 47.6278 23.7914C46.8366 23.7914 41.6943 23.7914 41.6943 23.7914V13.2096Z" fill="#006685"/>
</svg>
