<svg width="18" height="18" viewBox="0 0 18 18" fill="none" xmlns="http://www.w3.org/2000/svg">
<path fill-rule="evenodd" clip-rule="evenodd" d="M4.75451 2.05179C4.51802 1.93217 4.23875 1.93217 4.00226 2.05179C3.91333 2.09677 3.80246 2.19282 3.31327 2.68201L3.18191 2.81337C2.71506 3.28022 2.58923 3.41524 2.48863 3.59431C2.37204 3.80186 2.27436 4.17748 2.27507 4.41554C2.2757 4.62738 2.30697 4.75495 2.44469 5.24016C3.12436 7.6348 4.40653 9.89462 6.29346 11.7816C8.1804 13.6685 10.4402 14.9507 12.8349 15.6303C13.3201 15.7681 13.4476 15.7993 13.6595 15.8C13.8975 15.8007 14.2732 15.703 14.4807 15.5864C14.6598 15.4858 14.7948 15.36 15.2617 14.8931L15.393 14.7617C15.8822 14.2726 15.9783 14.1617 16.0232 14.0728C16.1428 13.8363 16.1428 13.557 16.0232 13.3205C15.9783 13.2316 15.8822 13.1207 15.393 12.6315L15.9823 12.0423L15.393 12.6315L15.2306 12.4691C14.9092 12.1477 14.8369 12.0819 14.7821 12.0463C14.5059 11.8667 14.1499 11.8667 13.8737 12.0463C13.8189 12.0819 13.7466 12.1477 13.4252 12.4691C13.4188 12.4755 13.4123 12.482 13.4057 12.4887C13.3309 12.5638 13.2362 12.6588 13.1225 12.7402L12.6374 12.0626L13.1225 12.7402C12.7167 13.0308 12.165 13.1249 11.6858 12.9852C11.5521 12.9462 11.4421 12.8932 11.3566 12.8519C11.3498 12.8487 11.3432 12.8455 11.3367 12.8424C10.0451 12.2222 8.83533 11.3771 7.7666 10.3084C6.69787 9.23969 5.8528 8.02995 5.23266 6.73832C5.22955 6.73185 5.22636 6.72524 5.2231 6.71847C5.18185 6.63289 5.12882 6.52289 5.08986 6.38924L5.88989 6.15603L5.08986 6.38924C4.95017 5.91004 5.04425 5.35832 5.33484 4.9525L5.33484 4.9525C5.41625 4.8388 5.51127 4.74413 5.58633 4.66934C5.59301 4.66268 5.59954 4.65618 5.60589 4.64983C5.92731 4.32841 5.99312 4.25614 6.02874 4.20136L6.02874 4.20136C6.20832 3.92515 6.20832 3.56908 6.02874 3.29288C5.99312 3.2381 5.92731 3.16582 5.60588 2.8444L5.44349 2.68201C4.95431 2.19282 4.84344 2.09677 4.75451 2.05179ZM3.25002 0.564538C3.95947 0.205701 4.7973 0.205701 5.50675 0.564538C5.86725 0.746876 6.18021 1.06064 6.54224 1.4236C6.56856 1.44998 6.59513 1.47663 6.622 1.5035L6.7844 1.66589C6.8021 1.68359 6.81964 1.70111 6.83701 1.71844C7.07589 1.95692 7.28167 2.16235 7.42603 2.38439L6.72739 2.83863L7.42603 2.38439C7.96478 3.213 7.96478 4.28123 7.42603 5.10984C7.28167 5.33189 7.07589 5.53731 6.83701 5.77579C6.81964 5.79313 6.8021 5.81064 6.7844 5.82835C6.73639 5.87635 6.7119 5.90097 6.69484 5.91902C6.69453 5.92038 6.69422 5.92188 6.69395 5.9235C6.69364 5.92531 6.69341 5.92698 6.69325 5.92849C6.696 5.93458 6.69972 5.94264 6.70484 5.95353C6.71285 5.97055 6.72226 5.99016 6.73512 6.01695C7.27497 7.14135 8.01121 8.19601 8.94512 9.12991C9.87902 10.0638 10.9337 10.8 12.0581 11.3399L11.6974 12.0911L12.0581 11.3399C12.0849 11.3528 12.1045 11.3622 12.1215 11.3702C12.1324 11.3753 12.1404 11.379 12.1465 11.3818C12.148 11.3816 12.1497 11.3814 12.1515 11.3811C12.1531 11.3808 12.1546 11.3805 12.156 11.3802C12.1741 11.3631 12.1987 11.3386 12.2467 11.2906C12.2644 11.2729 12.2819 11.2554 12.2992 11.238C12.5377 10.9991 12.7431 10.7934 12.9652 10.649C13.7938 10.1102 14.862 10.1102 15.6906 10.649C15.9127 10.7934 16.1181 10.9991 16.3566 11.238C16.3739 11.2554 16.3914 11.2729 16.4091 11.2906L15.8199 11.8799L16.4091 11.2906L16.5715 11.453C16.5984 11.4799 16.625 11.5065 16.6514 11.5328C17.0144 11.8948 17.3281 12.2078 17.5105 12.5683C17.8693 13.2777 17.8693 14.1156 17.5105 14.825C17.3281 15.1855 17.0144 15.4985 16.6514 15.8605C16.625 15.8868 16.5984 15.9134 16.5715 15.9403L16.4402 16.0716C16.4211 16.0907 16.4023 16.1095 16.3837 16.1281C15.996 16.5162 15.6987 16.8138 15.297 17.0395C14.8387 17.2969 14.1802 17.4682 13.6545 17.4666C13.1946 17.4652 12.8592 17.3699 12.4267 17.247C12.4112 17.2426 12.3956 17.2381 12.3798 17.2337C9.71877 16.4784 7.20798 15.0531 5.11495 12.9601C3.02192 10.867 1.59663 8.35626 0.841354 5.69524C0.836876 5.67946 0.832431 5.66382 0.828021 5.6483C0.705099 5.2158 0.609777 4.8804 0.608409 4.4205C0.606845 3.89486 0.7781 3.23632 1.03554 2.77804L1.03554 2.77803C1.26121 2.37631 1.55884 2.07899 1.94695 1.69128C1.96556 1.67268 1.98437 1.65389 2.0034 1.63486L2.13476 1.5035C2.16163 1.47663 2.18821 1.44998 2.21453 1.4236C2.57656 1.06064 2.88952 0.746876 3.25002 0.564539L3.62188 1.29974L3.25002 0.564538Z" fill="#667085"/>
</svg>
