<svg width="42" height="42" viewBox="0 0 42 42" fill="none" xmlns="http://www.w3.org/2000/svg">
<path fill-rule="evenodd" clip-rule="evenodd" d="M0 15.0587L12.5008 30.818L0 41.1702V15.0587Z" fill="#E55300"/>
<path fill-rule="evenodd" clip-rule="evenodd" d="M5.03125 41.1702L14.4375 33.3064L20.9388 41.1702H5.03125Z" fill="#E55300"/>
<path fill-rule="evenodd" clip-rule="evenodd" d="M0 6.62627L3.26224 10.7503L16.6753 27.5004L21.0217 24.0415C21.0217 24.0415 17.4134 19.7962 14.9907 15.0589C10.2538 5.79683 13.6074 0.0302734 13.6074 0.0302734H0V6.62627Z" fill="#E55300"/>
<path fill-rule="evenodd" clip-rule="evenodd" d="M18.5869 30.0861L23.0134 26.4323C23.0134 26.4323 27.2409 31.9937 32.1429 33.3064C38.5667 35.0265 41.4108 30.8181 41.4108 30.8181V41.1702H27.3015L30.483 38.4212C30.483 38.4212 28.8231 39.5272 24.7634 36.717C22.3673 35.0583 18.5869 30.0861 18.5869 30.0861Z" fill="#E55300"/>
<path fill-rule="evenodd" clip-rule="evenodd" d="M18.9937 0C18.9937 0 17.5816 1.92243 18.5867 6.62616C19.6611 11.6538 23.9339 16.975 23.924 16.8559C23.924 16.8559 24.1987 11.5722 27.3013 8.47149C33.9146 1.86239 41.4106 5.79672 41.4106 5.79672V0.0301641L18.9937 0Z" fill="#E55300"/>
<path fill-rule="evenodd" clip-rule="evenodd" d="M41.4108 12.7641C41.4108 12.7641 37.2286 9.18408 33.5925 9.18408C28.9412 9.18408 26.4023 13.1972 26.4023 16.1083C26.4023 20.3484 28.4389 22.7045 30.483 24.7473C33.4205 27.683 36.9942 30.8491 41.4108 28.3008C41.4108 23.4778 41.4108 12.7641 41.4108 12.7641Z" fill="#E55300"/>
</svg>
