<svg width="14" height="14" viewBox="0 0 14 14" fill="none" xmlns="http://www.w3.org/2000/svg">
<path d="M6.99967 13.6667C3.32634 13.6667 0.333008 10.6734 0.333008 7.00004C0.333008 3.32671 3.32634 0.333374 6.99967 0.333374C10.673 0.333374 13.6663 3.32671 13.6663 7.00004C13.6663 10.6734 10.673 13.6667 6.99967 13.6667ZM6.99967 1.66671C4.05967 1.66671 1.66634 4.06004 1.66634 7.00004C1.66634 9.94004 4.05967 12.3334 6.99967 12.3334C9.93967 12.3334 12.333 9.94004 12.333 7.00004C12.333 4.06004 9.93967 1.66671 6.99967 1.66671Z" fill="#006677"/>
<path d="M6.99967 1.00004V7.00004L11.4997 11.5134C11.4997 11.5134 14.1863 8.76004 12.373 4.33337C11.1063 1.22671 6.99967 1.00004 6.99967 1.00004Z" fill="#006677"/>
</svg>
